<svg width="134" height="395" viewBox="0 0 134 395" fill="none" xmlns="http://www.w3.org/2000/svg">
<path fill-rule="evenodd" clip-rule="evenodd" d="M16.4666 19.0396C16.3237 18.6303 15.8784 18.4118 15.4672 18.5492C10.4209 20.2357 7.5788 25.5784 9.00053 30.7057L41.4069 147.574C42.0488 149.888 43.5023 151.895 45.5019 153.226L76.6713 173.975C79.2404 175.686 82.4553 176.114 85.3825 175.136L94.0438 172.241C96.9876 171.257 99.3078 168.962 100.323 166.029L112.509 130.84C113.295 128.573 113.238 126.099 112.351 123.869L67.4623 11.1221C65.5004 6.19428 60.0324 3.65548 55.0019 5.33668C54.4921 5.50706 54.2138 6.05551 54.3774 6.56755L85.4721 103.907C85.9729 105.475 85.121 107.154 83.5602 107.676C81.9994 108.197 80.3091 107.368 79.7667 105.814L46.8916 11.6407C46.2688 9.85648 44.3278 8.90399 42.5354 9.50299C40.7431 10.102 39.7648 12.0301 40.3399 13.8303L70.6925 108.847C71.1932 110.414 70.3413 112.094 68.7805 112.615C67.2197 113.137 65.5294 112.307 64.9871 110.754L32.1119 16.5801C31.4891 14.7959 29.5481 13.8434 27.7558 14.4424C25.9634 15.0414 24.9852 16.9695 25.5602 18.7697L55.9128 113.786C56.4136 115.354 55.5617 117.033 54.0009 117.555C52.44 118.076 50.7498 117.247 50.2074 115.693L16.4666 19.0396Z" fill="#FEC123"/>
<path d="M64.08 130.591C62.3927 125.075 65.4094 119.219 70.8805 117.39L-nan -nanL70.8805 117.39C76.3516 115.562 82.2831 118.427 84.2514 123.849L170.119 360.401C173.401 369.44 168.586 379.406 159.465 382.454L-nan -nanL159.465 382.454C150.345 385.503 140.505 380.434 137.692 371.238L64.08 130.591Z" fill="#FEC123"/>
</svg>
