<svg width="206" height="395" viewBox="0 0 206 395" fill="none" xmlns="http://www.w3.org/2000/svg">
<path fill-rule="evenodd" clip-rule="evenodd" d="M73.0196 191.38C82.2131 175.44 102.026 168.764 119.52 163.059C136.897 157.392 153.975 143.843 165.882 124.371C187.728 88.6459 183.896 46.5125 157.324 30.2634C130.751 14.0143 91.5005 29.8028 69.6546 65.5279C57.7476 84.9996 53.4687 106.375 56.3423 124.425C59.2353 142.598 62.321 163.276 52.3213 178.723L-52.7534 341.038C-57.9792 349.111 -55.5235 359.903 -47.3194 364.92C-39.1154 369.937 -28.3892 367.205 -23.5847 358.875L73.0196 191.38Z" fill="#FEC123"/>
<ellipse cx="120.071" cy="94.0285" rx="48.9758" ry="66.4141" transform="rotate(31.4459 120.071 94.0285)" fill="#FF9900"/>
<ellipse cx="124.557" cy="90.2483" rx="50.8309" ry="63.0749" transform="rotate(31.4459 124.557 90.2483)" fill="#FEC123"/>
</svg>
