<svg width="201" height="205" viewBox="0 0 201 205" fill="none" xmlns="http://www.w3.org/2000/svg">
<g filter="url(#filter0_d_249_395)">
<path d="M136.923 156.55C114.481 183.139 74.734 186.502 48.1445 164.061C21.555 141.619 18.1924 101.872 40.6338 75.2823C63.0752 48.6928 117.657 12.7051 152.309 40.6426C186.961 68.58 159.364 129.96 136.923 156.55Z" fill="#E3E3E3"/>
</g>
<g filter="url(#filter1_i_249_395)">
<circle cx="87.4287" cy="116.74" r="42.5" transform="rotate(40.1643 87.4287 116.74)" fill="#FF9900"/>
</g>
<circle cx="86.9518" cy="111.103" r="32.5" transform="rotate(40.1643 86.9518 111.103)" fill="#FEC123" fill-opacity="0.8"/>
<ellipse cx="100.377" cy="93.6459" rx="12.5" ry="7.5" transform="rotate(40.1643 100.377 93.6459)" fill="#FFD363"/>
<ellipse cx="100.377" cy="93.6459" rx="12.5" ry="7.5" transform="rotate(40.1643 100.377 93.6459)" fill="#FFD363"/>
<ellipse cx="100.377" cy="93.6459" rx="12.5" ry="7.5" transform="rotate(40.1643 100.377 93.6459)" fill="#FFD363"/>
<ellipse cx="110.141" cy="108.426" rx="3.32785" ry="3.03011" transform="rotate(-5.2672 110.141 108.426)" fill="#FFD363"/>
<ellipse cx="110.141" cy="108.426" rx="3.32785" ry="3.03011" transform="rotate(-5.2672 110.141 108.426)" fill="#FFD363"/>
<ellipse cx="110.141" cy="108.426" rx="3.32785" ry="3.03011" transform="rotate(-5.2672 110.141 108.426)" fill="#FFD363"/>
<defs>
<filter id="filter0_d_249_395" x="25.7769" y="30.5246" width="142.939" height="154.393" filterUnits="userSpaceOnUse" color-interpolation-filters="sRGB">
<feFlood flood-opacity="0" result="BackgroundImageFix"/>
<feColorMatrix in="SourceAlpha" type="matrix" values="0 0 0 0 0 0 0 0 0 0 0 0 0 0 0 0 0 0 127 0" result="hardAlpha"/>
<feOffset dy="6"/>
<feComposite in2="hardAlpha" operator="out"/>
<feColorMatrix type="matrix" values="0 0 0 0 0 0 0 0 0 0 0 0 0 0 0 0 0 0 0.25 0"/>
<feBlend mode="normal" in2="BackgroundImageFix" result="effect1_dropShadow_249_395"/>
<feBlend mode="normal" in="SourceGraphic" in2="effect1_dropShadow_249_395" result="shape"/>
</filter>
<filter id="filter1_i_249_395" x="44.9278" y="74.239" width="85.0019" height="85.0018" filterUnits="userSpaceOnUse" color-interpolation-filters="sRGB">
<feFlood flood-opacity="0" result="BackgroundImageFix"/>
<feBlend mode="normal" in="SourceGraphic" in2="BackgroundImageFix" result="shape"/>
<feColorMatrix in="SourceAlpha" type="matrix" values="0 0 0 0 0 0 0 0 0 0 0 0 0 0 0 0 0 0 127 0" result="hardAlpha"/>
<feOffset dx="-2" dy="-4"/>
<feComposite in2="hardAlpha" operator="arithmetic" k2="-1" k3="1"/>
<feColorMatrix type="matrix" values="0 0 0 0 0 0 0 0 0 0 0 0 0 0 0 0 0 0 0.2 0"/>
<feBlend mode="normal" in2="shape" result="effect1_innerShadow_249_395"/>
</filter>
</defs>
</svg>
